<svg width="2000" height="593" viewBox="0 0 2000 593" fill="none" xmlns="http://www.w3.org/2000/svg">
<path d="M1427.83 580.465L1616.06 0H1811.76L2000 580.465H1817.57L1798.5 497.542H1629.33L1610.26 580.465H1427.83ZM1661.67 356.571H1766.16L1713.91 131.849L1661.67 356.571Z" fill="black"/>
<path d="M1134.21 580.465V0H1504.05V145.945H1300.05V225.552H1450.97V371.498H1300.05V580.465H1134.21Z" fill="black"/>
<path d="M882.579 592.074C750.731 592.074 652.881 501.688 652.881 380.619C652.881 259.551 750.731 169.164 882.579 169.164C1014.43 169.164 1112.28 259.551 1112.28 380.619C1112.28 501.688 1014.43 592.074 882.579 592.074ZM812.094 380.619C812.094 423.739 841.947 455.25 882.579 455.25C923.212 455.25 953.064 423.739 953.064 380.619C953.064 337.499 923.212 305.988 882.579 305.988C841.947 305.988 812.094 337.499 812.094 380.619Z" fill="black"/>
<path d="M0 580.465V0H262.868L317.597 281.111L371.498 0H631.048V580.465H465.201V147.604L376.473 580.465H248.771L165.847 165.847V580.465H0Z" fill="black"/>
</svg>
